<?xml version="1.0" standalone="no"?><!DOCTYPE svg PUBLIC "-//W3C//DTD SVG 1.1//EN" "http://www.w3.org/Graphics/SVG/1.1/DTD/svg11.dtd"><svg height="1024" node-id="1" sillyvg="true" template-height="1024" template-width="1024" version="1.1" viewBox="0 0 1024 1024" width="1024" xmlns="http://www.w3.org/2000/svg" xmlns:xlink="http://www.w3.org/1999/xlink"><defs node-id="90"></defs><path d="M 300.37 168.53 L 141.93 168.53 L 141.93 326.97 L 194.75 326.97 L 194.75 379.79 L 141.93 379.79 L 141.93 643.87 L 194.75 643.87 L 194.75 749.50 L 300.37 749.50 L 300.37 802.31 L 353.19 802.31 L 353.19 855.13 L 670.08 855.13 L 670.08 802.31 L 722.90 802.31 L 722.90 749.50 L 828.53 749.50 L 828.53 689.57 L 828.53 643.87 L 881.34 643.87 L 881.34 379.79 L 828.53 379.79 L 828.53 326.96 L 881.34 326.96 L 881.34 168.53 L 722.90 168.53 L 722.90 221.34 L 300.37 221.34 Z" fill="#e7dac5" fill-rule="nonzero" node-id="92" stroke="none" target-height="686.6" target-width="739.41003" target-x="141.93" target-y="168.53"></path><path d="M 141.93 115.71 L 194.74 115.71 L 194.74 168.52 L 141.93 168.52 Z" fill="#472712" fill-rule="nonzero" node-id="94" stroke="none" target-height="52.810005" target-width="52.810013" target-x="141.93" target-y="115.71"></path><path d="M 89.12 168.53 L 141.93 168.53 L 141.93 221.34 L 89.12 221.34 Z" fill="#472712" fill-rule="nonzero" node-id="96" stroke="none" target-height="52.809998" target-width="52.80999" target-x="89.12" target-y="168.53"></path><path d="M 89.12 221.34 L 141.93 221.34 L 141.93 274.15 L 89.12 274.15 Z" fill="#472712" fill-rule="nonzero" node-id="98" stroke="none" target-height="52.809998" target-width="52.80999" target-x="89.12" target-y="221.34"></path><path d="M 89.12 274.16 L 141.93 274.16 L 141.93 326.97 L 89.12 326.97 Z" fill="#472712" fill-rule="nonzero" node-id="100" stroke="none" target-height="52.809998" target-width="52.80999" target-x="89.12" target-y="274.16"></path><path d="M 881.34 221.34 L 934.15 221.34 L 934.15 274.15 L 881.34 274.15 Z" fill="#472712" fill-rule="nonzero" node-id="102" stroke="none" target-height="52.809998" target-width="52.809998" target-x="881.34" target-y="221.34"></path><path d="M 881.34 274.16 L 934.15 274.16 L 934.15 326.97 L 881.34 326.97 Z" fill="#472712" fill-rule="nonzero" node-id="104" stroke="none" target-height="52.809998" target-width="52.809998" target-x="881.34" target-y="274.16"></path><path d="M 141.93 326.97 L 194.74 326.97 L 194.74 379.78 L 141.93 379.78 Z" fill="#472712" fill-rule="nonzero" node-id="106" stroke="none" target-height="52.809998" target-width="52.810013" target-x="141.93" target-y="326.97"></path><path d="M 828.53 326.97 L 881.34 326.97 L 881.34 379.78 L 828.53 379.78 Z" fill="#472712" fill-rule="nonzero" node-id="108" stroke="none" target-height="52.809998" target-width="52.809998" target-x="828.53" target-y="326.97"></path><path d="M 89.12 379.79 L 141.93 379.79 L 141.93 432.60 L 89.12 432.60 Z" fill="#472712" fill-rule="nonzero" node-id="110" stroke="none" target-height="52.809998" target-width="52.80999" target-x="89.12" target-y="379.79"></path><path d="M 89.12 432.61 L 141.93 432.61 L 141.93 485.42 L 89.12 485.42 Z" fill="#472712" fill-rule="nonzero" node-id="112" stroke="none" target-height="52.810028" target-width="52.80999" target-x="89.12" target-y="432.61"></path><path d="M 357.58 432.61 L 410.39 432.61 L 410.39 485.42 L 357.58 485.42 Z" fill="#fdfdfb" fill-rule="nonzero" node-id="114" stroke="none" target-height="52.810028" target-width="52.810028" target-x="357.58" target-y="432.61"></path><path d="M 304.77 432.61 L 357.58 432.61 L 357.58 485.42 L 304.77 485.42 Z" fill="#472712" fill-rule="nonzero" node-id="116" stroke="none" target-height="52.810028" target-width="52.809998" target-x="304.77" target-y="432.61"></path><path d="M 357.58 485.42 L 410.39 485.42 L 410.39 538.23 L 357.58 538.23 Z" fill="#472712" fill-rule="nonzero" node-id="118" stroke="none" target-height="52.809967" target-width="52.810028" target-x="357.58" target-y="485.42"></path><path d="M 304.77 485.42 L 357.58 485.42 L 357.58 538.23 L 304.77 538.23 Z" fill="#472712" fill-rule="nonzero" node-id="120" stroke="none" target-height="52.809967" target-width="52.809998" target-x="304.77" target-y="485.42"></path><path d="M 670.08 432.61 L 722.89 432.61 L 722.89 485.42 L 670.08 485.42 Z" fill="#fdfdfb" fill-rule="nonzero" node-id="122" stroke="none" target-height="52.810028" target-width="52.809998" target-x="670.08" target-y="432.61"></path><path d="M 617.27 432.61 L 670.08 432.61 L 670.08 485.42 L 617.27 485.42 Z" fill="#472712" fill-rule="nonzero" node-id="124" stroke="none" target-height="52.810028" target-width="52.809998" target-x="617.27" target-y="432.61"></path><path d="M 670.08 485.42 L 722.89 485.42 L 722.89 538.23 L 670.08 538.23 Z" fill="#472712" fill-rule="nonzero" node-id="126" stroke="none" target-height="52.809967" target-width="52.809998" target-x="670.08" target-y="485.42"></path><path d="M 617.27 485.42 L 670.08 485.42 L 670.08 538.23 L 617.27 538.23 Z" fill="#472712" fill-rule="nonzero" node-id="128" stroke="none" target-height="52.809967" target-width="52.809998" target-x="617.27" target-y="485.42"></path><path d="M 89.12 485.42 L 141.93 485.42 L 141.93 538.23 L 89.12 538.23 Z" fill="#472712" fill-rule="nonzero" node-id="130" stroke="none" target-height="52.809967" target-width="52.80999" target-x="89.12" target-y="485.42"></path><path d="M 89.12 538.24 L 141.93 538.24 L 141.93 591.05 L 89.12 591.05 Z" fill="#472712" fill-rule="nonzero" node-id="132" stroke="none" target-height="52.809998" target-width="52.80999" target-x="89.12" target-y="538.24"></path><path d="M 89.12 591.05 L 141.93 591.05 L 141.93 643.86 L 89.12 643.86 Z" fill="#472712" fill-rule="nonzero" node-id="134" stroke="none" target-height="52.809998" target-width="52.80999" target-x="89.12" target-y="591.05"></path><path d="M 881.34 379.79 L 934.15 379.79 L 934.15 432.60 L 881.34 432.60 Z" fill="#472712" fill-rule="nonzero" node-id="136" stroke="none" target-height="52.809998" target-width="52.809998" target-x="881.34" target-y="379.79"></path><path d="M 881.34 432.61 L 934.15 432.61 L 934.15 485.42 L 881.34 485.42 Z" fill="#472712" fill-rule="nonzero" node-id="138" stroke="none" target-height="52.810028" target-width="52.809998" target-x="881.34" target-y="432.61"></path><path d="M 881.34 485.42 L 934.15 485.42 L 934.15 538.23 L 881.34 538.23 Z" fill="#472712" fill-rule="nonzero" node-id="140" stroke="none" target-height="52.809967" target-width="52.809998" target-x="881.34" target-y="485.42"></path><path d="M 881.34 538.24 L 934.15 538.24 L 934.15 591.05 L 881.34 591.05 Z" fill="#472712" fill-rule="nonzero" node-id="142" stroke="none" target-height="52.809998" target-width="52.809998" target-x="881.34" target-y="538.24"></path><path d="M 881.34 591.05 L 934.15 591.05 L 934.15 643.86 L 881.34 643.86 Z" fill="#472712" fill-rule="nonzero" node-id="144" stroke="none" target-height="52.809998" target-width="52.809998" target-x="881.34" target-y="591.05"></path><path d="M 141.93 643.87 L 194.74 643.87 L 194.74 696.68 L 141.93 696.68 Z" fill="#472712" fill-rule="nonzero" node-id="146" stroke="none" target-height="52.809998" target-width="52.810013" target-x="141.93" target-y="643.87"></path><path d="M 141.93 696.68 L 194.74 696.68 L 194.74 749.49 L 141.93 749.49 Z" fill="#472712" fill-rule="nonzero" node-id="148" stroke="none" target-height="52.809998" target-width="52.810013" target-x="141.93" target-y="696.68"></path><path d="M 828.53 643.87 L 881.34 643.87 L 881.34 696.68 L 828.53 696.68 Z" fill="#472712" fill-rule="nonzero" node-id="150" stroke="none" target-height="52.809998" target-width="52.809998" target-x="828.53" target-y="643.87"></path><path d="M 828.53 696.68 L 881.34 696.68 L 881.34 749.49 L 828.53 749.49 Z" fill="#472712" fill-rule="nonzero" node-id="152" stroke="none" target-height="52.809998" target-width="52.809998" target-x="828.53" target-y="696.68"></path><path d="M 194.75 749.50 L 247.56 749.50 L 247.56 802.31 L 194.75 802.31 Z" fill="#472712" fill-rule="nonzero" node-id="154" stroke="none" target-height="52.809998" target-width="52.809998" target-x="194.75" target-y="749.5"></path><path d="M 247.56 749.50 L 300.37 749.50 L 300.37 802.31 L 247.56 802.31 Z" fill="#472712" fill-rule="nonzero" node-id="156" stroke="none" target-height="52.809998" target-width="52.809998" target-x="247.56" target-y="749.5"></path><path d="M 722.90 749.50 L 775.71 749.50 L 775.71 802.31 L 722.90 802.31 Z" fill="#472712" fill-rule="nonzero" node-id="158" stroke="none" target-height="52.809998" target-width="52.809998" target-x="722.9" target-y="749.5"></path><path d="M 775.71 749.50 L 828.52 749.50 L 828.52 802.31 L 775.71 802.31 Z" fill="#472712" fill-rule="nonzero" node-id="160" stroke="none" target-height="52.809998" target-width="52.809998" target-x="775.71" target-y="749.5"></path><path d="M 300.37 802.31 L 353.18 802.31 L 353.18 855.12 L 300.37 855.12 Z" fill="#472712" fill-rule="nonzero" node-id="162" stroke="none" target-height="52.809998" target-width="52.809998" target-x="300.37" target-y="802.31"></path><path d="M 353.20 855.13 L 406.01 855.13 L 406.01 907.94 L 353.20 907.94 Z" fill="#472712" fill-rule="nonzero" node-id="164" stroke="none" target-height="52.809998" target-width="52.809998" target-x="353.2" target-y="855.13"></path><path d="M 406.01 855.13 L 458.82 855.13 L 458.82 907.94 L 406.01 907.94 Z" fill="#472712" fill-rule="nonzero" node-id="166" stroke="none" target-height="52.809998" target-width="52.809998" target-x="406.01" target-y="855.13"></path><path d="M 458.83 855.13 L 511.64 855.13 L 511.64 907.94 L 458.83 907.94 Z" fill="#472712" fill-rule="nonzero" node-id="168" stroke="none" target-height="52.809998" target-width="52.810028" target-x="458.83" target-y="855.13"></path><path d="M 511.64 855.13 L 564.45 855.13 L 564.45 907.94 L 511.64 907.94 Z" fill="#472712" fill-rule="nonzero" node-id="170" stroke="none" target-height="52.809998" target-width="52.809998" target-x="511.64" target-y="855.13"></path><path d="M 564.45 855.13 L 617.26 855.13 L 617.26 907.94 L 564.45 907.94 Z" fill="#472712" fill-rule="nonzero" node-id="172" stroke="none" target-height="52.809998" target-width="52.809998" target-x="564.45" target-y="855.13"></path><path d="M 617.27 855.13 L 670.08 855.13 L 670.08 907.94 L 617.27 907.94 Z" fill="#472712" fill-rule="nonzero" node-id="174" stroke="none" target-height="52.809998" target-width="52.809998" target-x="617.27" target-y="855.13"></path><path d="M 670.08 802.31 L 722.89 802.31 L 722.89 855.12 L 670.08 855.12 Z" fill="#472712" fill-rule="nonzero" node-id="176" stroke="none" target-height="52.809998" target-width="52.809998" target-x="670.08" target-y="802.31"></path><path d="M 194.75 115.71 L 247.56 115.71 L 247.56 168.52 L 194.75 168.52 Z" fill="#472712" fill-rule="nonzero" node-id="178" stroke="none" target-height="52.810005" target-width="52.809998" target-x="194.75" target-y="115.71"></path><path d="M 247.56 221.33 L 300.37 221.33 L 300.37 274.14 L 247.56 274.14 Z" fill="#fdfdfb" fill-rule="nonzero" node-id="180" stroke="none" target-height="52.810013" target-width="52.809998" target-x="247.56" target-y="221.33"></path><path d="M 194.75 221.33 L 247.56 221.33 L 247.56 274.14 L 194.75 274.14 Z" fill="#fdfdfb" fill-rule="nonzero" node-id="182" stroke="none" target-height="52.810013" target-width="52.809998" target-x="194.75" target-y="221.33"></path><path d="M 194.75 274.15 L 247.56 274.15 L 247.56 326.96 L 194.75 326.96 Z" fill="#fdfdfb" fill-rule="nonzero" node-id="184" stroke="none" target-height="52.809998" target-width="52.809998" target-x="194.75" target-y="274.15"></path><g node-id="271"><path d="M 775.71 274.15 L 722.90 274.15 L 722.90 221.34 L 775.71 221.34 Z" fill="#fdfdfb" fill-rule="nonzero" group-id="1" node-id="188" stroke="none" target-height="52.809998" target-width="52.809998" target-x="722.9" target-y="221.34"></path></g><g node-id="272"><path d="M 828.53 274.15 L 775.72 274.15 L 775.72 221.34 L 828.53 221.34 Z" fill="#fdfdfb" fill-rule="nonzero" group-id="2" node-id="193" stroke="none" target-height="52.809998" target-width="52.81006" target-x="775.72" target-y="221.34"></path></g><g node-id="273"><path d="M 828.53 326.96 L 775.72 326.96 L 775.72 274.15 L 828.53 274.15 Z" fill="#fdfdfb" fill-rule="nonzero" group-id="3" node-id="198" stroke="none" target-height="52.809998" target-width="52.81006" target-x="775.72" target-y="274.15"></path></g><path d="M 247.56 115.71 L 300.37 115.71 L 300.37 168.52 L 247.56 168.52 Z" fill="#472712" fill-rule="nonzero" node-id="201" stroke="none" target-height="52.810005" target-width="52.809998" target-x="247.56" target-y="115.71"></path><path d="M 300.37 168.53 L 353.18 168.53 L 353.18 221.34 L 300.37 221.34 Z" fill="#472712" fill-rule="nonzero" node-id="203" stroke="none" target-height="52.809998" target-width="52.809998" target-x="300.37" target-y="168.53"></path><path d="M 353.20 168.53 L 406.01 168.53 L 406.01 221.34 L 353.20 221.34 Z" fill="#472712" fill-rule="nonzero" node-id="205" stroke="none" target-height="52.809998" target-width="52.809998" target-x="353.2" target-y="168.53"></path><path d="M 353.20 221.34 L 406.01 221.34 L 406.01 274.15 L 353.20 274.15 Z" fill="#472712" fill-rule="nonzero" node-id="207" stroke="none" target-height="52.809998" target-width="52.809998" target-x="353.2" target-y="221.34"></path><path d="M 353.20 274.16 L 406.01 274.16 L 406.01 326.97 L 353.20 326.97 Z" fill="#472712" fill-rule="nonzero" node-id="209" stroke="none" target-height="52.809998" target-width="52.809998" target-x="353.2" target-y="274.16"></path><path d="M 406.01 168.53 L 458.82 168.53 L 458.82 221.34 L 406.01 221.34 Z" fill="#472712" fill-rule="nonzero" node-id="211" stroke="none" target-height="52.809998" target-width="52.809998" target-x="406.01" target-y="168.53"></path><path d="M 458.83 168.53 L 511.64 168.53 L 511.64 221.34 L 458.83 221.34 Z" fill="#472712" fill-rule="nonzero" node-id="213" stroke="none" target-height="52.809998" target-width="52.810028" target-x="458.83" target-y="168.53"></path><path d="M 511.64 168.53 L 564.45 168.53 L 564.45 221.34 L 511.64 221.34 Z" fill="#472712" fill-rule="nonzero" node-id="215" stroke="none" target-height="52.809998" target-width="52.809998" target-x="511.64" target-y="168.53"></path><path d="M 485.23 221.33 L 538.04 221.33 L 538.04 274.14 L 485.23 274.14 Z" fill="#472712" fill-rule="nonzero" node-id="217" stroke="none" target-height="52.810013" target-width="52.809967" target-x="485.23" target-y="221.33"></path><path d="M 485.23 273.51 L 538.04 273.51 L 538.04 326.32 L 485.23 326.32 Z" fill="#472712" fill-rule="nonzero" node-id="219" stroke="none" target-height="52.809998" target-width="52.809967" target-x="485.23" target-y="273.51"></path><path d="M 485.23 326.32 L 538.04 326.32 L 538.04 379.13 L 485.23 379.13 Z" fill="#472712" fill-rule="nonzero" node-id="221" stroke="none" target-height="52.809998" target-width="52.809967" target-x="485.23" target-y="326.32"></path><path d="M 462.91 538.24 L 515.72 538.24 L 515.72 591.05 L 462.91 591.05 Z" fill="#472712" fill-rule="nonzero" node-id="223" stroke="none" target-height="52.809998" target-width="52.809967" target-x="462.91" target-y="538.24"></path><path d="M 515.72 538.24 L 568.53 538.24 L 568.53 591.05 L 515.72 591.05 Z" fill="#472712" fill-rule="nonzero" node-id="225" stroke="none" target-height="52.809998" target-width="52.81006" target-x="515.72" target-y="538.24"></path><path d="M 722.98 577.50 L 775.79 577.50 L 775.79 630.31 L 722.98 630.31 Z" fill="#472712" fill-rule="nonzero" node-id="227" stroke="none" target-height="52.809998" target-width="52.809998" target-x="722.98" target-y="577.5"></path><path d="M 775.64 577.50 L 828.45 577.50 L 828.45 630.31 L 775.64 630.31 Z" fill="#472712" fill-rule="nonzero" node-id="229" stroke="none" target-height="52.809998" target-width="52.809998" target-x="775.64" target-y="577.5"></path><path d="M 722.98 636.76 L 775.79 636.76 L 775.79 689.57 L 722.98 689.57 Z" fill="#472712" fill-rule="nonzero" node-id="231" stroke="none" target-height="52.809998" target-width="52.809998" target-x="722.98" target-y="636.76"></path><path d="M 775.64 636.76 L 828.45 636.76 L 828.45 689.57 L 775.64 689.57 Z" fill="#472712" fill-rule="nonzero" node-id="233" stroke="none" target-height="52.809998" target-width="52.809998" target-x="775.64" target-y="636.76"></path><path d="M 194.82 577.50 L 247.63 577.50 L 247.63 630.31 L 194.82 630.31 Z" fill="#472712" fill-rule="nonzero" node-id="235" stroke="none" target-height="52.809998" target-width="52.809998" target-x="194.82" target-y="577.5"></path><path d="M 247.48 577.50 L 300.29 577.50 L 300.29 630.31 L 247.48 630.31 Z" fill="#472712" fill-rule="nonzero" node-id="237" stroke="none" target-height="52.809998" target-width="52.810013" target-x="247.48" target-y="577.5"></path><path d="M 194.82 636.76 L 247.63 636.76 L 247.63 689.57 L 194.82 689.57 Z" fill="#472712" fill-rule="nonzero" node-id="239" stroke="none" target-height="52.809998" target-width="52.809998" target-x="194.82" target-y="636.76"></path><path d="M 247.48 636.76 L 300.29 636.76 L 300.29 689.57 L 247.48 689.57 Z" fill="#472712" fill-rule="nonzero" node-id="241" stroke="none" target-height="52.809998" target-width="52.810013" target-x="247.48" target-y="636.76"></path><path d="M 489.31 591.05 L 542.12 591.05 L 542.12 643.86 L 489.31 643.86 Z" fill="#472712" fill-rule="nonzero" node-id="243" stroke="none" target-height="52.809998" target-width="52.809998" target-x="489.31" target-y="591.05"></path><path d="M 436.50 643.87 L 489.31 643.87 L 489.31 696.68 L 436.50 696.68 Z" fill="#472712" fill-rule="nonzero" node-id="245" stroke="none" target-height="52.809998" target-width="52.809998" target-x="436.5" target-y="643.87"></path><path d="M 542.13 643.87 L 594.94 643.87 L 594.94 696.68 L 542.13 696.68 Z" fill="#472712" fill-rule="nonzero" node-id="247" stroke="none" target-height="52.809998" target-width="52.809998" target-x="542.13" target-y="643.87"></path><path d="M 594.94 591.05 L 647.75 591.05 L 647.75 643.86 L 594.94 643.86 Z" fill="#472712" fill-rule="nonzero" node-id="249" stroke="none" target-height="52.809998" target-width="52.809998" target-x="594.94" target-y="591.05"></path><path d="M 383.68 591.05 L 436.49 591.05 L 436.49 643.86 L 383.68 643.86 Z" fill="#472712" fill-rule="nonzero" node-id="251" stroke="none" target-height="52.809998" target-width="52.809998" target-x="383.68" target-y="591.05"></path><path d="M 564.45 168.53 L 617.26 168.53 L 617.26 221.34 L 564.45 221.34 Z" fill="#472712" fill-rule="nonzero" node-id="253" stroke="none" target-height="52.809998" target-width="52.809998" target-x="564.45" target-y="168.53"></path><path d="M 617.27 168.53 L 670.08 168.53 L 670.08 221.34 L 617.27 221.34 Z" fill="#472712" fill-rule="nonzero" node-id="255" stroke="none" target-height="52.809998" target-width="52.809998" target-x="617.27" target-y="168.53"></path><path d="M 617.27 221.33 L 670.08 221.33 L 670.08 274.14 L 617.27 274.14 Z" fill="#472712" fill-rule="nonzero" node-id="257" stroke="none" target-height="52.810013" target-width="52.809998" target-x="617.27" target-y="221.33"></path><path d="M 617.27 274.16 L 670.08 274.16 L 670.08 326.97 L 617.27 326.97 Z" fill="#472712" fill-rule="nonzero" node-id="259" stroke="none" target-height="52.809998" target-width="52.809998" target-x="617.27" target-y="274.16"></path><path d="M 670.08 168.53 L 722.89 168.53 L 722.89 221.34 L 670.08 221.34 Z" fill="#472712" fill-rule="nonzero" node-id="261" stroke="none" target-height="52.809998" target-width="52.809998" target-x="670.08" target-y="168.53"></path><path d="M 722.90 115.71 L 775.71 115.71 L 775.71 168.52 L 722.90 168.52 Z" fill="#472712" fill-rule="nonzero" node-id="263" stroke="none" target-height="52.810005" target-width="52.809998" target-x="722.9" target-y="115.71"></path><path d="M 775.71 115.71 L 828.52 115.71 L 828.52 168.52 L 775.71 168.52 Z" fill="#472712" fill-rule="nonzero" node-id="265" stroke="none" target-height="52.810005" target-width="52.809998" target-x="775.71" target-y="115.71"></path><path d="M 828.53 115.71 L 881.34 115.71 L 881.34 168.52 L 828.53 168.52 Z" fill="#472712" fill-rule="nonzero" node-id="267" stroke="none" target-height="52.810005" target-width="52.809998" target-x="828.53" target-y="115.71"></path><path d="M 881.34 168.53 L 934.15 168.53 L 934.15 221.34 L 881.34 221.34 Z" fill="#472712" fill-rule="nonzero" node-id="269" stroke="none" target-height="52.809998" target-width="52.809998" target-x="881.34" target-y="168.53"></path></svg>